<?xml version="1.0" encoding="UTF-8"?>
<svg version="1.1" xmlns="http://www.w3.org/2000/svg" width="3000" height="3000">
<path d="M0 0 C990 0 1980 0 3000 0 C3000 990 3000 1980 3000 3000 C2010 3000 1020 3000 0 3000 C0 2010 0 1020 0 0 Z M852 790 C852 797.92 852 805.84 852 814 C868.335 814.495 868.335 814.495 885 815 C885.33 1110.68 885.66 1406.36 886 1711 C874.78 1711 863.56 1711 852 1711 C852 1718.92 852 1726.84 852 1735 C885.33 1735 918.66 1735 953 1735 C953 1727.08 953 1719.16 953 1711 C941.78 1711 930.56 1711 919 1711 C919.33 1501.45 919.66 1291.9 920 1076 C944.24183737 1257.77377721 944.24183737 1257.77377721 949.82966685 1299.68857121 C950.1715039 1302.25271798 950.51334111 1304.81686473 950.85518113 1307.3810111 C957.81377176 1359.57751161 964.76843565 1411.774533 971.71484375 1463.97265625 C971.85582413 1465.03203971 971.85582413 1465.03203971 971.99965259 1466.11282486 C976.43356383 1499.43125811 980.86563709 1532.74993583 985.29716969 1566.06868553 C987.68046027 1583.98747897 990.06424974 1601.90620598 992.44863415 1619.8248539 C993.89069713 1630.66204959 995.33244671 1641.49928681 996.77355957 1652.33660889 C998.06275666 1662.03139948 999.35267571 1671.72609372 1000.6434747 1681.42067116 C1001.30777409 1686.41005583 1001.9717532 1691.39948256 1002.63486862 1696.38902473 C1003.24112082 1700.95064444 1003.84828528 1705.51214175 1004.4561801 1710.07354283 C1004.67673882 1711.72975997 1004.89696096 1713.38602197 1005.11681795 1715.04233241 C1005.41596452 1717.2955919 1005.7163289 1719.54868584 1006.01699829 1721.80174255 C1006.18384439 1723.0556652 1006.3506905 1724.30958784 1006.52259254 1725.60150814 C1006.96375358 1728.74197475 1007.47864124 1731.87184741 1008 1735 C1036.71 1735 1065.42 1735 1095 1735 C1098.93489329 1700.72354525 1098.93489329 1700.72354525 1102.86279297 1666.44628906 C1102.99041322 1665.3312917 1103.11803348 1664.21629434 1103.24952102 1663.06750917 C1106.00693702 1638.97133878 1108.74419693 1614.87290215 1111.47265625 1590.7734375 C1111.58501012 1589.78109659 1111.69736398 1588.78875568 1111.81312251 1587.76634383 C1113.08549115 1576.52787992 1114.35712644 1565.28933309 1115.62844849 1554.05075073 C1118.13571059 1531.88647143 1120.64584581 1509.72251736 1123.15625 1487.55859375 C1123.28206113 1486.44777695 1123.40787226 1485.33696015 1123.53749585 1484.19248223 C1126.17148968 1460.93656096 1128.80652247 1437.68075978 1131.453125 1414.42626953 C1131.53763538 1413.68369266 1131.62214577 1412.94111579 1131.70921707 1412.1760366 C1133.82404737 1393.5961909 1135.9441425 1375.01694311 1138.0625 1356.4375 C1148.40961116 1265.62893706 1158.70149516 1174.81408817 1169 1084 C1169.33 1290.58 1169.66 1497.16 1170 1710 C1159.11 1710.33 1148.22 1710.66 1137 1711 C1137 1718.92 1137 1726.84 1137 1735 C1194.75 1735 1252.5 1735 1312 1735 C1312 1727.08 1312 1719.16 1312 1711 C1301.11 1710.67 1290.22 1710.34 1279 1710 C1279 1414.32 1279 1118.64 1279 814 C1289.89 814 1300.78 814 1312 814 C1312 806.08 1312 798.16 1312 790 C1264.81 790 1217.62 790 1169 790 C1164.78317667 825.35969705 1164.78317667 825.35969705 1160.80196381 860.74424362 C1160.30005675 865.3466173 1159.79513464 869.94865832 1159.2901001 874.5506897 C1158.53240532 881.45764561 1157.77603224 888.36474517 1157.02053833 895.27194214 C1155.7670954 906.73109479 1154.51062252 918.18991436 1153.25366211 929.64868164 C1153.14262779 930.66093162 1153.03159348 931.6731816 1152.91719449 932.71610582 C1152.45551527 936.92502318 1151.99383166 941.13394005 1151.532121 945.34285396 C1150.80218325 951.99701075 1150.07245315 958.65119027 1149.3428641 965.30538529 C1144.85815168 1006.2072718 1140.36032498 1047.10771027 1135.859375 1088.0078125 C1135.67985983 1089.6390848 1135.50034479 1091.27035712 1135.32082987 1092.90162945 C1133.21728058 1112.01673427 1131.11348364 1131.13181183 1129.00958638 1150.24687836 C1125.60561468 1181.17386489 1122.2021901 1212.10091164 1118.79892588 1243.02797604 C1118.43846206 1246.30367797 1118.07799436 1249.57937949 1117.7175231 1252.8550806 C1112.99890384 1295.7344944 1108.28259467 1338.61416067 1103.57090783 1381.49433684 C1103.05718683 1386.16952056 1102.54342112 1390.84469935 1102.02965266 1395.51987785 C1101.41680526 1401.09666472 1100.80397941 1406.67345396 1100.19116211 1412.25024414 C1100.07386855 1413.31764442 1099.956575 1414.3850447 1099.8357271 1415.48479044 C1098.48326753 1427.79272254 1097.13122886 1440.10070072 1095.77985406 1452.40875196 C1094.96486883 1459.83127678 1094.14949527 1467.25375887 1093.33380389 1474.67620611 C1092.78896075 1479.63426165 1092.24460479 1484.59237031 1091.70067245 1489.55052584 C1091.37636991 1492.50553498 1091.05157421 1495.46048974 1090.72662914 1498.41542828 C1090.5104043 1500.38303251 1090.29477152 1502.35070176 1090.07916355 1504.31837368 C1089.42981502 1510.21850262 1088.75812519 1516.11281627 1088 1522 C1084.96516214 1497.99291299 1081.9306973 1473.98577884 1078.8964386 1449.97861862 C1078.38182918 1445.90701568 1077.86721082 1441.83541387 1077.35258484 1437.76381302 C1071.23958918 1389.39910386 1065.128883 1341.0341078 1059.02797508 1292.66787219 C1058.36701947 1287.4280386 1057.70603061 1282.18820919 1057.04504395 1276.94837952 C1056.9137698 1275.90772876 1056.78249565 1274.867078 1056.6472435 1273.79489237 C1055.18153214 1262.17575698 1053.7157932 1250.55662507 1052.25 1238.9375 C1052.05024409 1237.35404746 1052.05024409 1237.35404746 1051.84645271 1235.73860598 C1045.21612087 1183.1807579 1038.57666974 1130.62407983 1031.9140625 1078.0703125 C1031.69396963 1076.33423091 1031.69396963 1076.33423091 1031.46943045 1074.56307697 C1028.55728614 1051.59267498 1025.64398259 1028.62242008 1022.72948301 1005.65231681 C1021.2047623 993.63543799 1019.68033167 981.61852239 1018.15625 969.6015625 C1018.02269686 968.54855674 1017.88914372 967.49555098 1017.75154352 966.41063595 C1014.17994937 938.24893518 1010.62037069 910.0857608 1007.08229589 881.91982865 C1006.78450834 879.54937457 1006.48663273 877.17893158 1006.18872452 874.80849266 C1004.41487874 860.6940107 1002.64215184 846.57939394 1000.87761307 832.46374512 C1000.27452554 827.64248787 999.66960546 822.82146182 999.06422424 818.0004921 C998.79107171 815.82144431 998.51879718 813.64228624 998.2474823 811.46300888 C997.88510659 808.55245341 997.51982474 805.64227728 997.15380859 802.73217773 C997.05013914 801.89308648 996.94646969 801.05399523 996.83965874 800.18947697 C996.39925033 796.70969794 995.85230411 793.40921646 995 790 C947.81 790 900.62 790 852 790 Z M1468 790 C1466.68467818 798.54959184 1465.4933158 807.00044416 1464.62348938 815.59078979 C1464.49920034 816.79181261 1464.37491129 817.99283542 1464.24685591 819.23025286 C1463.90577901 822.53248948 1463.56760838 825.83499931 1463.23071051 829.13766325 C1462.86334441 832.73173945 1462.49213673 836.32541926 1462.12142181 839.91915131 C1461.47605299 846.18045488 1460.83307924 852.44200068 1460.19172096 858.70371628 C1459.24863031 867.91117383 1458.30177194 877.11824111 1457.35407957 886.32522602 C1455.77910509 901.62728471 1454.20706056 916.92964299 1452.63671875 932.23217773 C1450.39451092 954.08157565 1448.1480756 975.93053768 1445.90076378 997.77941114 C1445.01589668 1006.38245228 1444.13115749 1014.98550657 1443.24642944 1023.58856201 C1443.1007753 1025.00487906 1443.1007753 1025.00487906 1442.95217864 1026.44980857 C1441.48096861 1040.7558014 1440.01047018 1055.06186727 1438.54043579 1069.36798096 C1438.34684894 1071.25191602 1438.15326199 1073.13585108 1437.95967495 1075.01978612 C1437.86438233 1075.94714892 1437.76908971 1076.87451172 1437.67090943 1077.82997642 C1433.72894939 1116.19205563 1429.78250437 1154.55366373 1425.82421875 1192.9140625 C1425.71017385 1194.01932549 1425.59612896 1195.12458848 1425.47862816 1196.26334429 C1424.25196424 1208.15132032 1423.0249702 1220.03926226 1421.79779053 1231.92718506 C1419.70461185 1252.20430858 1417.61288885 1272.4815823 1415.52137184 1292.75887728 C1415.29119527 1294.99043708 1415.06101517 1297.22199651 1414.83083153 1299.45355558 C1410.01689312 1346.12326341 1405.20849665 1392.79354191 1400.40054411 1439.46386671 C1400.00823072 1443.27200197 1399.61591248 1447.08013672 1399.223594 1450.88827145 C1395.50738873 1486.96052503 1391.79129608 1523.0327902 1388.07592305 1559.10512951 C1386.51122095 1574.29672971 1384.94638514 1589.48831614 1383.38142186 1604.67988944 C1382.44038152 1613.81492131 1381.49947322 1622.94996676 1380.55874575 1632.08503085 C1379.9224989 1638.26328945 1379.28609872 1644.44153225 1378.64957993 1650.61976284 C1378.28609123 1654.14793553 1377.92266834 1657.67611496 1377.55943775 1661.20431423 C1377.29184796 1663.80327778 1377.02414694 1666.40222988 1376.75632203 1669.0011692 C1376.50794955 1671.41191461 1376.25990523 1673.82269385 1376.0122298 1676.23351097 C1375.47810497 1681.42170972 1374.93729679 1686.60888124 1374.37159157 1691.79373932 C1374.27647343 1692.67147987 1374.18135528 1693.54922041 1374.08335477 1694.45355916 C1373.91139897 1696.03313643 1373.73688621 1697.61243891 1373.55899972 1699.19135928 C1373.12445936 1703.18951234 1373 1706.95106586 1373 1711 C1361.78 1711 1350.56 1711 1339 1711 C1339 1718.92 1339 1726.84 1339 1735 C1372.66 1735 1406.32 1735 1441 1735 C1441 1727.08 1441 1719.16 1441 1711 C1429.78 1711 1418.56 1711 1407 1711 C1407.66 1706.38 1408.32 1701.76 1409 1697 C1409.37638419 1693.6856635 1409.73533286 1690.37830534 1410.05552673 1687.05909729 C1410.14495704 1686.15837571 1410.23438734 1685.25765412 1410.32652766 1684.32963794 C1410.6202415 1681.36399816 1410.90962702 1678.39795347 1411.19897461 1675.43188477 C1411.41088548 1673.28307549 1411.62306656 1671.13429284 1411.835495 1668.98553467 C1412.40856248 1663.18101699 1412.97785403 1657.37613462 1413.54643321 1651.57117581 C1414.1460854 1645.45559616 1414.74921458 1639.34035939 1415.35194397 1633.2250824 C1416.49472295 1621.62503575 1417.6343345 1610.02468018 1418.77282959 1598.4242124 C1420.05717381 1585.33939681 1421.34529647 1572.25495406 1422.63363636 1559.17053139 C1425.15433034 1533.56808311 1427.67472336 1507.96560263 1430.17983609 1482.36162442 C1430.69843552 1477.06496502 1431.22045852 1471.76866518 1431.74707335 1466.47279674 C1432.03894353 1463.53454448 1432.32869727 1460.59608614 1432.61797249 1457.6575774 C1432.80662487 1455.74937614 1432.99825809 1453.84147028 1433.19002438 1451.93357944 C1433.29916951 1450.82131961 1433.40831465 1449.70905977 1433.52076721 1448.56309509 C1433.61440331 1447.62240142 1433.70803942 1446.68170774 1433.80451298 1445.7125082 C1434.01332389 1442.81512248 1434 1439.90490035 1434 1437 C1466.01 1437 1498.02 1437 1531 1437 C1531.99 1449.21 1532.98 1461.42 1534 1474 C1534.74519097 1482.65322336 1535.49750788 1491.30538441 1536.26831055 1499.95629883 C1536.47576612 1502.29669151 1536.68309823 1504.63709514 1536.89031982 1506.97750854 C1537.44054182 1513.18803936 1537.99243785 1519.39842028 1538.54469275 1525.60877061 C1539.06693174 1531.48467408 1539.58784917 1537.36069462 1540.10879324 1543.23671301 C1541.13760332 1554.84076666 1542.16763558 1566.44471146 1543.19848633 1578.04858398 C1544.19719815 1589.29071254 1545.19530332 1600.53289469 1546.19262695 1611.77514648 C1546.25456569 1612.47334367 1546.31650443 1613.17154085 1546.38032009 1613.89089552 C1546.69118331 1617.39510608 1547.00203496 1620.89931767 1547.31288087 1624.40352976 C1549.8734626 1653.26917894 1552.43612713 1682.13464297 1555 1711 C1544.11 1711 1533.22 1711 1522 1711 C1522 1718.92 1522 1726.84 1522 1735 C1579.75 1735 1637.5 1735 1697 1735 C1697 1727.08 1697 1719.16 1697 1711 C1685.78 1711 1674.56 1711 1663 1711 C1663 1707.37 1663 1703.74 1663 1700 C1662.84288952 1697.47164863 1662.64785794 1694.9452307 1662.40653992 1692.42352295 C1662.34238526 1691.73810482 1662.2782306 1691.05268669 1662.21213186 1690.34649831 C1661.99877691 1688.08043877 1661.77809822 1685.81515723 1661.55737305 1683.54980469 C1661.40012957 1681.89610658 1661.24334414 1680.24236487 1661.08697414 1678.58858395 C1660.65834034 1674.06926894 1660.223272 1669.55059351 1659.78711367 1665.03199935 C1659.31806495 1660.16067611 1658.85506159 1655.28877788 1658.3913269 1650.41694641 C1657.58694041 1641.97499635 1656.77877649 1633.53341481 1655.9680481 1625.09207153 C1654.77989358 1612.72073361 1653.59761821 1600.34883906 1652.41674364 1587.97680438 C1650.50707392 1567.97035078 1648.59316828 1547.96430502 1646.67675781 1527.95849609 C1644.27870907 1502.92381824 1641.88862924 1477.88838576 1639.50189161 1452.85262728 C1638.62954649 1443.70251437 1637.75691462 1434.5524288 1636.88427734 1425.40234375 C1636.78869231 1424.40006784 1636.69310727 1423.39779192 1636.59462571 1422.36514401 C1634.33644528 1398.68719826 1632.07518162 1375.00954727 1629.8125 1351.33203125 C1629.71395202 1350.30078644 1629.61540404 1349.26954164 1629.51386976 1348.20704699 C1626.4713476 1316.36991534 1623.42373732 1284.53327243 1620.37363648 1252.69686604 C1618.70703799 1235.30088598 1617.04074387 1217.90487675 1615.37462187 1200.50885105 C1615.16683482 1198.33935538 1614.9590435 1196.16986011 1614.75124788 1194.00036526 C1606.84928501 1111.49944569 1599.0105466 1028.99260754 1591.20146847 946.48284721 C1589.68802394 930.49205642 1588.17386063 914.50133383 1586.65877628 898.51069832 C1586.47555947 896.57693624 1586.29234433 894.64317401 1586.10913086 892.70941162 C1586.01842581 891.75204806 1585.92772076 890.79468449 1585.83426708 889.80830991 C1585.16897079 882.78552953 1584.50442728 875.76267809 1583.84008789 868.73980713 C1582.99042686 859.75819044 1582.13951347 850.77669333 1581.28713202 841.7953344 C1580.84531062 837.13960835 1580.40403335 832.48383241 1579.96421051 827.8279171 C1579.56001849 823.54933672 1579.15427896 819.27090598 1578.74732113 814.9925878 C1578.59959366 813.43666121 1578.45243124 811.88068084 1578.30588627 810.32464242 C1578.10583721 808.20141135 1577.90372554 806.07838611 1577.70111084 803.95539856 C1577.58911221 802.77333737 1577.47711357 801.59127619 1577.36172104 800.37339497 C1576.98990016 796.90580934 1576.4932018 793.45241261 1576 790 C1540.36 790 1504.72 790 1468 790 Z M1724 790 C1724 797.92 1724 805.84 1724 814 C1735.22 814 1746.44 814 1758 814 C1758 1110.01 1758 1406.02 1758 1711 C1746.78 1711 1735.56 1711 1724 1711 C1724 1718.92 1724 1726.84 1724 1735 C1782.08 1735 1840.16 1735 1900 1735 C1900 1727.08 1900 1719.16 1900 1711 C1888.78 1711 1877.56 1711 1866 1711 C1866 1558.21 1866 1405.42 1866 1248 C1901.64 1248 1937.28 1248 1974 1248 C1974 1400.79 1974 1553.58 1974 1711 C1962.78 1711 1951.56 1711 1940 1711 C1940 1718.92 1940 1726.84 1940 1735 C1998.08 1735 2056.16 1735 2116 1735 C2116 1727.08 2116 1719.16 2116 1711 C2099.17 1710.505 2099.17 1710.505 2082 1710 C2082 1414.32 2082 1118.64 2082 814 C2093.22 814 2104.44 814 2116 814 C2116 806.08 2116 798.16 2116 790 C2057.92 790 1999.84 790 1940 790 C1940 797.92 1940 805.84 1940 814 C1951.22 814 1962.44 814 1974 814 C1974 949.3 1974 1084.6 1974 1224 C1938.36 1224 1902.72 1224 1866 1224 C1866 1088.7 1866 953.4 1866 814 C1877.22 814 1888.44 814 1900 814 C1900 806.08 1900 798.16 1900 790 C1841.92 790 1783.84 790 1724 790 Z M871 1932 C867.63177771 1960.50346138 864.67600986 1989.04674104 861.74812603 2017.59826636 C861.08760942 2024.03512582 860.4248053 2030.47174976 859.76226807 2036.90840149 C858.65502302 2047.66837788 857.54913298 2058.4284927 856.44433594 2069.1887207 C855.3085564 2080.25066635 854.17192065 2091.31252349 853.03417969 2102.37426758 C852.96354269 2103.06104223 852.89290569 2103.74781687 852.82012817 2104.45540287 C852.4656066 2107.90222067 852.11106868 2111.34903678 851.75652266 2114.79585207 C848.83514993 2143.19697468 845.91664138 2171.59839113 843 2200 C840.03 2200.33 837.06 2200.66 834 2201 C834 2203.31 834 2205.62 834 2208 C843.57 2208 853.14 2208 863 2208 C863 2205.69 863 2203.38 863 2201 C859.7 2201 856.4 2201 853 2201 C853.33 2200.34 853.66 2199.68 854 2199 C854.29474764 2196.79410574 854.53721635 2194.58116365 854.75610352 2192.36645508 C854.85873505 2191.34412781 854.85873505 2191.34412781 854.96343994 2190.30114746 C855.1892389 2188.04098381 855.40922318 2185.78029695 855.62890625 2183.51953125 C855.78416991 2181.94729698 855.93968591 2180.37508761 856.09544373 2178.80290222 C856.42157039 2175.50190326 856.74487018 2172.20064287 857.06616211 2168.89916992 C857.47695781 2164.67995148 857.89430356 2160.46141273 858.31375217 2156.24304676 C858.63627489 2152.9926754 858.95547012 2149.74198382 859.27366447 2146.49118614 C859.42618692 2144.93665704 859.57968409 2143.38222324 859.7341938 2141.8278904 C859.95056635 2139.64574404 860.16249222 2137.46320851 860.37329102 2135.28051758 C860.49462906 2134.0407869 860.6159671 2132.80105621 860.74098206 2131.52375793 C860.99821984 2128.02421781 861 2124.50898167 861 2121 C870.57 2121 880.14 2121 890 2121 C890 2124.63 890 2128.26 890 2132 C890.14582208 2134.49947921 890.32621349 2136.99732895 890.55078125 2139.4909668 C890.60930267 2140.15581589 890.6678241 2140.82066498 890.7281189 2141.50566101 C890.91833789 2143.6539508 891.11532565 2145.80155723 891.3125 2147.94921875 C891.44744549 2149.45803607 891.5819594 2150.96689205 891.71606445 2152.4757843 C892.06688112 2156.41009313 892.4234831 2160.34385592 892.78137207 2164.27752686 C893.14686735 2168.30644397 893.50677884 2172.33585962 893.8671875 2176.36523438 C894.57272037 2184.24398262 895.28437764 2192.12216179 896 2200 C893.03 2200.33 890.06 2200.66 887 2201 C887 2203.31 887 2205.62 887 2208 C903.83 2208 920.66 2208 938 2208 C938 2205.69 938 2203.38 938 2201 C934.7 2201 931.4 2201 928 2201 C927.95219108 2200.03753263 927.90438215 2199.07506525 927.85512447 2198.0834322 C927.20563414 2185.74888421 926.08213967 2173.47555105 924.89868164 2161.18237305 C924.68477095 2158.93650771 924.47113025 2156.69061664 924.25773621 2154.44470215 C923.68192966 2148.39264003 923.10234907 2142.34094482 922.52202916 2136.28931403 C921.91221474 2129.92345464 921.30585177 2123.55726646 920.69908142 2117.19111633 C919.67973891 2106.50132229 918.65819602 2095.81174111 917.63500977 2085.12231445 C916.58678958 2074.17130169 915.54010712 2063.22014362 914.49536133 2052.26879883 C914.43104096 2051.59457721 914.36672058 2050.9203556 914.30045111 2050.22570302 C914.0417529 2047.51391675 913.78306129 2044.80212986 913.52437944 2042.09034203 C912.34136935 2029.68904858 911.15714015 2017.2878715 909.97265625 2004.88671875 C909.85373748 2003.64161018 909.73481871 2002.39650161 909.61229634 2001.11366248 C908.92506749 1993.91901559 908.23729117 1986.72442138 907.54875374 1979.5298996 C907.34142619 1977.36296024 907.13423872 1975.19600748 906.92721176 1973.02903938 C906.37709927 1967.27172352 905.82310027 1961.51480581 905.2650826 1955.75825095 C904.98945565 1952.8902834 904.72075302 1950.02171372 904.45242119 1947.15305519 C904.27613413 1945.30606714 904.09969378 1943.45909372 903.92308044 1941.61213684 C903.84463553 1940.75565133 903.76619063 1939.89916582 903.6853686 1939.0167262 C903.64782208 1935.19103519 903.64782208 1935.19103519 902 1932 C899.70848583 1931.91209025 897.41427476 1931.89305962 895.12109375 1931.90234375 C893.86482178 1931.90484131 892.6085498 1931.90733887 891.31420898 1931.90991211 C889.68863891 1931.91903558 888.06306933 1931.92824568 886.4375 1931.9375 C883.76298608 1931.94885969 881.08847266 1931.95989901 878.41395569 1931.97047424 C877.34251462 1931.97475898 877.34251462 1931.97475898 876.24942827 1931.97913027 C874.49961899 1931.9861227 872.74980951 1931.99306629 871 1932 Z M1153 1932 C1153 1934.31 1153 1936.62 1153 1939 C1156.3 1939 1159.6 1939 1163 1939 C1163 2025.46 1163 2111.92 1163 2201 C1159.7 2201 1156.4 2201 1153 2201 C1153 2203.31 1153 2205.62 1153 2208 C1160.10244999 2208.02526787 1167.20488848 2208.04283201 1174.30737305 2208.05493164 C1176.72567172 2208.05997349 1179.14396733 2208.06680678 1181.56225586 2208.07543945 C1185.02979283 2208.08751157 1188.49728966 2208.09322963 1191.96484375 2208.09765625 C1193.05337143 2208.10281754 1194.14189911 2208.10797882 1195.26341248 2208.11329651 C1196.26437454 2208.11337204 1197.26533661 2208.11344757 1198.29663086 2208.11352539 C1199.62566689 2208.11685631 1199.62566689 2208.11685631 1200.98155212 2208.12025452 C1202.9969869 2208.22428041 1202.9969869 2208.22428041 1204 2207 C1204.04080783 2205.00041636 1204.04254356 2202.99954746 1204 2201 C1200.7 2201 1197.4 2201 1194 2201 C1193.99045207 2176.8175862 1194.01498753 2152.63541585 1194.0802784 2128.45308304 C1194.10979539 2117.22518293 1194.12809097 2105.99747248 1194.12011719 2094.76953125 C1194.11319683 2084.98506017 1194.12718049 2075.20088249 1194.16643608 2065.41648364 C1194.18649411 2060.23396461 1194.1959688 2055.05190658 1194.18042374 2049.86936188 C1194.16612884 2044.9936089 1194.17973424 2040.11873829 1194.21495247 2035.24309921 C1194.22293608 2033.45163167 1194.22063319 2031.66008493 1194.20739174 2029.86864853 C1194.19085687 2027.42547755 1194.21101838 2024.98528272 1194.24050903 2022.54229736 C1194.22692293 2021.83023235 1194.21333683 2021.11816733 1194.19933903 2020.38452458 C1194.24609566 2018.39702225 1194.24609566 2018.39702225 1195 2015 C1200.01242933 2010.78396594 1204.56976708 2009.72089139 1211 2010 C1213.96197753 2011.17244944 1215.3341072 2012.02002015 1217.10759544 2014.63002396 C1218.36689942 2017.97438189 1218.28779511 2021.20740653 1218.2784729 2024.7321167 C1218.2842653 2025.5154929 1218.2900577 2026.2988691 1218.29602563 2027.10598397 C1218.31304226 2029.73313249 1218.31590356 2032.3601055 1218.31884766 2034.98730469 C1218.32814469 2036.86964856 1218.33831302 2038.75198829 1218.34928894 2040.63432312 C1218.37662838 2045.74755077 1218.39175005 2050.86075081 1218.40471697 2055.9740324 C1218.42033024 2061.31656251 1218.4471262 2066.65903608 1218.4727478 2072.00152588 C1218.51956755 2082.1197133 1218.5562962 2092.23791131 1218.58942068 2102.35615182 C1218.62761948 2113.87480278 1218.67703551 2125.39339701 1218.72740483 2136.91200018 C1218.83077225 2160.60796348 1218.91853614 2184.30395057 1219 2208 C1232.53 2208 1246.06 2208 1260 2208 C1260 2205.69 1260 2203.38 1260 2201 C1256.7 2201 1253.4 2201 1250 2201 C1250.00276538 2200.12369777 1250.00553076 2199.24739553 1250.00837994 2198.34453869 C1250.0747165 2176.99367642 1250.1243179 2155.64283198 1250.15543652 2134.29188824 C1250.17088635 2123.96660848 1250.1919398 2113.64139763 1250.22631836 2103.31616211 C1250.25627845 2094.31365483 1250.27558869 2085.31119748 1250.28226548 2076.30864173 C1250.28616655 2071.54460804 1250.29529522 2066.78071715 1250.31719017 2062.01672935 C1250.33765984 2057.52617768 1250.34381275 2053.03582668 1250.33932304 2048.54523277 C1250.34014358 2046.90342109 1250.3460465 2045.2616022 1250.35761642 2043.61983109 C1250.45037303 2029.77005494 1249.35210384 2017.51919711 1239.25 2007.1875 C1230.62200435 2001.38019524 1219.85658395 1999.96233305 1209.64453125 2001.5078125 C1204.21375726 2002.78961009 1200.07026842 2004.46486579 1195 2007 C1194.67 1982.25 1194.34 1957.5 1194 1932 C1180.47 1932 1166.94 1932 1153 1932 Z M1277 1932 C1277 1947.84 1277 1963.68 1277 1980 C1287.23 1980 1297.46 1980 1308 1980 C1308 1964.16 1308 1948.32 1308 1932 C1297.77 1932 1287.54 1932 1277 1932 Z M1849 1932 C1849 1934.31 1849 1936.62 1849 1939 C1851.97 1939 1854.94 1939 1858 1939 C1858 2025.46 1858 2111.92 1858 2201 C1855.03 2201 1852.06 2201 1849 2201 C1849 2203.31 1849 2205.62 1849 2208 C1865.83 2208 1882.66 2208 1900 2208 C1900 2205.69 1900 2203.38 1900 2201 C1896.7 2201 1893.4 2201 1890 2201 C1890 2114.54 1890 2028.08 1890 1939 C1893.3 1939 1896.6 1939 1900 1939 C1900 1936.69 1900 1934.38 1900 1932 C1883.17 1932 1866.34 1932 1849 1932 Z M1356.93359375 1935.58984375 C1356.33950211 1935.85382462 1355.74541046 1936.11780548 1355.13331604 1936.38978577 C1353.8775558 1936.94875744 1352.62260542 1937.50955153 1351.3684082 1938.07202148 C1349.44358355 1938.93477321 1347.51598063 1939.79105896 1345.58789062 1940.64648438 C1339.90495562 1942.75343072 1339.90495562 1942.75343072 1335 1946 C1334.90629376 1947.77991924 1334.88255729 1949.56356739 1334.88647461 1951.34594727 C1334.88655014 1952.4870546 1334.88662567 1953.62816193 1334.88670349 1954.80384827 C1334.89186478 1956.0454924 1334.89702606 1957.28713654 1334.90234375 1958.56640625 C1334.90446617 1960.46204567 1334.90446617 1960.46204567 1334.90663147 1962.39598083 C1334.91129418 1965.76124889 1334.9202852 1969.1264499 1334.93133545 1972.49169922 C1334.94155154 1975.9234967 1334.94612951 1979.35530109 1334.95117188 1982.78710938 C1334.9622262 1989.52475824 1334.9789829 1996.26237525 1335 2003 C1331.7 2003 1328.4 2003 1325 2003 C1325 2005.31 1325 2007.62 1325 2010 C1328.3 2010 1331.6 2010 1335 2010 C1334.99723462 2010.83599417 1334.99446924 2011.67198833 1334.99162006 2012.53331566 C1334.92529269 2032.89909238 1334.87568656 2053.26485041 1334.84456348 2073.63071251 C1334.82911156 2083.47959656 1334.80805409 2093.3284084 1334.77368164 2103.17724609 C1334.74372798 2111.76406804 1334.72441283 2120.35083766 1334.71773452 2128.9377104 C1334.71383236 2133.4820622 1334.70469675 2138.02626436 1334.68280983 2142.57056808 C1334.66235032 2146.85346292 1334.65618522 2151.13614739 1334.66067696 2155.41908646 C1334.65985597 2156.98552852 1334.6539469 2158.55197809 1334.64238358 2160.11837769 C1334.53791719 2175.00808504 1337.04439651 2185.47590198 1347.125 2196.6875 C1359.1015255 2208.08109727 1373.59576118 2208.31834248 1389 2208 C1389 2205.69 1389 2203.38 1389 2201 C1388.05898437 2200.95101562 1387.11796875 2200.90203125 1386.1484375 2200.8515625 C1384.90320312 2200.77679687 1383.65796875 2200.70203125 1382.375 2200.625 C1381.14523437 2200.55539062 1379.91546875 2200.48578125 1378.6484375 2200.4140625 C1375.13270835 2200.01506112 1372.25863081 2199.36464271 1369 2198 C1365.59935954 2192.3322659 1365.87513382 2184.9385867 1365.87974548 2178.51454163 C1365.87889106 2177.79393899 1365.87803663 2177.07333635 1365.87715632 2176.33089727 C1365.87551894 2173.93419533 1365.88099415 2171.53756455 1365.88647461 2169.14086914 C1365.88675688 2167.41572064 1365.88659796 2165.69057202 1365.8860321 2163.96542358 C1365.8857457 2159.29448889 1365.89161709 2154.62357998 1365.89860606 2149.95265126 C1365.9048657 2145.06661565 1365.90544547 2140.18057941 1365.90663147 2135.29454041 C1365.90973709 2126.04765878 1365.91794011 2116.800789 1365.92798096 2107.55391258 C1365.93916599 2097.02432705 1365.94465857 2086.49474095 1365.94967639 2075.96515095 C1365.96012336 2054.31009385 1365.97790981 2032.65504809 1366 2011 C1373.26 2010.67 1380.52 2010.34 1388 2010 C1388 2007.69 1388 2005.38 1388 2003 C1380.41 2003 1372.82 2003 1365 2003 C1365 1979.9 1365 1956.8 1365 1933 C1361.96254906 1933 1359.69867298 1934.358143 1356.93359375 1935.58984375 Z M1638.77514648 1937.90722656 C1636.94638196 1938.74592659 1635.10949212 1939.56460737 1633.27148438 1940.3828125 C1631.54188477 1941.17558594 1631.54188477 1941.17558594 1629.77734375 1941.984375 C1628.71765381 1942.46616211 1627.65796387 1942.94794922 1626.56616211 1943.44433594 C1623.69629697 1945.18411148 1623.16983291 1945.93742323 1622 1949 C1621.71227162 1951.54452905 1621.71227162 1951.54452905 1621.77294922 1954.31933594 C1621.77310028 1955.38013367 1621.77325134 1956.4409314 1621.77340698 1957.53387451 C1621.78372955 1958.67253967 1621.79405212 1959.81120483 1621.8046875 1960.984375 C1621.8075174 1962.15510559 1621.81034729 1963.32583618 1621.81326294 1964.53204346 C1621.82445844 1968.27146625 1621.84956224 1972.01064959 1621.875 1975.75 C1621.8850306 1978.28515279 1621.89415631 1980.82030934 1621.90234375 1983.35546875 C1621.92439578 1989.57040477 1621.95892165 1995.78516178 1622 2002 C1617.05 2002.495 1617.05 2002.495 1612 2003 C1612 2005.31 1612 2007.62 1612 2010 C1615.3 2010 1618.6 2010 1622 2010 C1621.99723462 2010.81868938 1621.99446924 2011.63737877 1621.99162006 2012.48087692 C1621.92525081 2032.43843986 1621.87566627 2052.39598366 1621.84456348 2072.35363388 C1621.82912107 2082.00516483 1621.80808196 2091.65662193 1621.77368164 2101.30810547 C1621.74369867 2109.7242816 1621.72440593 2118.14040422 1621.71773452 2126.55663228 C1621.71383729 2131.00938752 1621.70473346 2135.46198974 1621.68280983 2139.91469574 C1621.66230382 2144.11387876 1621.65619443 2148.31284708 1621.66067696 2152.51207542 C1621.65985802 2154.04542651 1621.65397696 2155.57878549 1621.64238358 2157.11209297 C1621.5396502 2171.41218505 1623.09746959 2184.2348152 1633.00390625 2195.22265625 C1645.78185498 2207.45199896 1660.32349761 2208.34463495 1677 2208 C1677.04254356 2206.00045254 1677.04080783 2203.99958364 1677 2202 C1675.18529401 2200.18529401 1672.26205735 2200.74125018 1669.8125 2200.625 C1660.89223706 2199.97039144 1660.89223706 2199.97039144 1657 2197 C1654.20533305 2192.457798 1653.56438535 2188.63304378 1653.60127258 2183.40701294 C1653.59462576 2182.66276341 1653.58797893 2181.91851389 1653.58113068 2181.15171134 C1653.56254372 2178.66887123 1653.56510301 2176.18651484 1653.56762695 2173.70361328 C1653.55860715 2171.91949281 1653.54827939 2170.13537855 1653.53674316 2168.35127258 C1653.50917267 2163.51498888 1653.49988856 2158.67882276 1653.49388909 2153.84247065 C1653.48450559 2148.78554789 1653.45830219 2143.72871296 1653.43388367 2138.67184448 C1653.39021439 2129.09912576 1653.36167002 2119.52642408 1653.33856028 2109.95363605 C1653.31151094 2099.0540165 1653.26759924 2088.1544853 1653.22227156 2077.25492883 C1653.12941911 2054.83666522 1653.0583392 2032.41837769 1653 2010 C1660.26 2010 1667.52 2010 1675 2010 C1675 2007.69 1675 2005.38 1675 2003 C1667.74 2003 1660.48 2003 1653 2003 C1653 1979.9 1653 1956.8 1653 1933 C1647.84008936 1933 1643.40420966 1935.7746599 1638.77514648 1937.90722656 Z M1061.19921875 2016.328125 C1052.29319735 2027.14822915 1051.69485995 2039.70841531 1051.74121094 2053.20727539 C1051.7377063 2054.48029007 1051.73420166 2055.75330475 1051.73059082 2057.06489563 C1051.72155469 2060.52352267 1051.72497414 2063.98202899 1051.73134899 2067.44065785 C1051.73645379 2071.07945506 1051.7317053 2074.71824274 1051.72857666 2078.35704041 C1051.72495043 2084.46371291 1051.72970118 2090.57033684 1051.73925781 2096.67700195 C1051.75014466 2103.71448533 1051.7466097 2110.75185282 1051.735605 2117.7893334 C1051.72649953 2123.85761184 1051.72526258 2129.92585559 1051.73048234 2135.99413866 C1051.73358355 2139.60713023 1051.73406259 2143.22006751 1051.72740936 2146.8330555 C1051.7205053 2150.86281208 1051.73010166 2154.89237195 1051.74121094 2158.92211914 C1051.73716248 2160.10318237 1051.73311401 2161.28424561 1051.72894287 2162.50109863 C1051.79517094 2175.51875854 1054.06553478 2187.44612425 1063.140625 2197.33984375 C1074.86122726 2207.8046672 1087.67100456 2210.67121045 1103 2210 C1114.28083012 2208.98355888 1125.4876616 2203.53522377 1133 2195 C1141.60057457 2182.92463973 1142.18024898 2171.34827603 1142.125 2156.9375 C1142.12886719 2155.89400391 1142.13273437 2154.85050781 1142.13671875 2153.77539062 C1142.13542969 2152.78603516 1142.13414063 2151.79667969 1142.1328125 2150.77734375 C1142.13112061 2149.43530884 1142.13112061 2149.43530884 1142.12939453 2148.06616211 C1142.22924445 2146.00873516 1142.22924445 2146.00873516 1141 2145 C1138.78144736 2144.91216458 1136.56011504 2144.89305391 1134.33984375 2144.90234375 C1133.67537735 2144.9037587 1133.01091095 2144.90517365 1132.3263092 2144.90663147 C1130.19666101 2144.91224482 1128.06711661 2144.92479946 1125.9375 2144.9375 C1124.49674631 2144.94251329 1123.05599097 2144.94707649 1121.61523438 2144.95117188 C1118.07678898 2144.96221855 1114.53840461 2144.97949208 1111 2145 C1110.99635437 2145.57105469 1110.99270874 2146.14210938 1110.98895264 2146.73046875 C1110.94697912 2152.70109016 1110.87753048 2158.67095345 1110.79248047 2164.64111328 C1110.76434228 2166.86597086 1110.74309235 2169.09092707 1110.72900391 2171.31591797 C1110.70747568 2174.52362303 1110.66077322 2177.73015103 1110.609375 2180.9375 C1110.60753204 2182.41766602 1110.60753204 2182.41766602 1110.60565186 2183.92773438 C1110.47117591 2190.34082211 1109.38851239 2194.51668502 1106 2200 C1102.1053744 2202.59641707 1097.55933356 2202.55427192 1093 2202 C1088.78233466 2200.64716395 1087.41250476 2199.79364719 1085.35584068 2195.83668518 C1083.85470751 2192.0782232 1083.62271583 2188.73703792 1083.61904907 2184.67553711 C1083.6143691 2183.97212409 1083.60968913 2183.26871107 1083.60486734 2182.54398251 C1083.59297415 2180.20490674 1083.60235184 2177.86642306 1083.61181641 2175.52734375 C1083.60774817 2173.84310567 1083.60240487 2172.15887027 1083.59588623 2170.47463989 C1083.58223683 2165.91267956 1083.58750146 2161.3509233 1083.59702349 2156.7889595 C1083.60463239 2152.00895905 1083.59757105 2147.22897577 1083.59286499 2142.44897461 C1083.58741103 2134.42265698 1083.59458963 2126.39642223 1083.60888672 2118.37011719 C1083.62521253 2109.0979711 1083.61992377 2099.82602294 1083.6034075 2090.55388165 C1083.58978241 2082.58510236 1083.58787798 2074.61638258 1083.59572351 2066.64759541 C1083.60039439 2061.89164805 1083.60104096 2057.13579364 1083.59111404 2052.37985229 C1083.58243177 2047.908057 1083.5884893 2043.43651625 1083.60579681 2038.96474838 C1083.60975492 2037.32610369 1083.60863919 2035.68743748 1083.60200882 2034.04880142 C1083.5937762 2031.80706854 1083.60413464 2029.56614463 1083.61904907 2027.32446289 C1083.62018015 2026.07162003 1083.62131123 2024.81877716 1083.62247658 2023.52796936 C1084.13098261 2018.77596303 1085.42376412 2014.7513732 1088.6875 2011.125 C1093.7173944 2008.67802435 1097.60736151 2008.56622735 1102.8125 2010.1875 C1106.43714402 2012.24857209 1108.3393007 2013.82333625 1109.55747986 2017.83660889 C1110.03277295 2020.16022029 1110.15972708 2022.30580838 1110.20532227 2024.67675781 C1110.2352401 2026.05773651 1110.2352401 2026.05773651 1110.26576233 2027.46661377 C1110.28247482 2028.45216248 1110.29918732 2029.43771118 1110.31640625 2030.453125 C1110.33718735 2031.46848328 1110.35796844 2032.48384155 1110.37937927 2033.52996826 C1110.44470597 2036.76991073 1110.50368137 2040.00993348 1110.5625 2043.25 C1110.60570126 2045.44792493 1110.64931607 2047.64584178 1110.69335938 2049.84375 C1110.80114744 2055.2290856 1110.90034673 2060.61448312 1111 2066 C1121.23 2066 1131.46 2066 1142 2066 C1142.90086337 2039.56328523 1142.90086337 2039.56328523 1132.8125 2015.8125 C1122.85349901 2005.85349901 1111.33267519 2001.72510001 1097.4375 2000.75 C1083.0422066 2001.00156823 1071.00567421 2005.92127431 1061.19921875 2016.328125 Z M1522.125 2014.25 C1515.41488288 2021.35695201 1511.88702426 2029.19414087 1511.85955811 2038.92521667 C1511.85384796 2040.13776123 1511.84813782 2041.35030579 1511.84225464 2042.59959412 C1511.84100936 2043.94033803 1511.83988425 2045.28108206 1511.83886719 2046.62182617 C1511.83423686 2048.03636809 1511.82921191 2049.45090877 1511.82382202 2050.865448 C1511.81071458 2054.70660155 1511.80425602 2058.54773764 1511.79981136 2062.38891006 C1511.79687729 2064.7910935 1511.7927718 2067.19327221 1511.78830719 2069.59545326 C1511.77463513 2077.11808188 1511.76496768 2084.64069962 1511.7611053 2092.16333979 C1511.75662847 2100.83418608 1511.73909684 2109.50487443 1511.7101047 2118.17567271 C1511.6884508 2124.88582052 1511.678399 2131.59592402 1511.67706418 2138.30610639 C1511.67601858 2142.30989332 1511.67016356 2146.31353172 1511.65224457 2150.31728172 C1511.6357001 2154.08726473 1511.63363905 2157.85698859 1511.64238358 2161.62699509 C1511.64351447 2163.658937 1511.62984552 2165.69087055 1511.6156311 2167.72276306 C1511.66647775 2178.92208231 1513.66256667 2186.51500601 1521 2195 C1521.50273438 2195.6084375 1522.00546875 2196.216875 1522.5234375 2196.84375 C1530.46198018 2205.67295845 1541.53264199 2209.41124565 1553.08984375 2210.21484375 C1567.72384266 2210.64986155 1580.06407658 2206.46258021 1590.8515625 2196.5078125 C1600.40070813 2185.36135524 1601.16939521 2173.18348463 1601.125 2159.125 C1601.12886719 2157.8771875 1601.13273437 2156.629375 1601.13671875 2155.34375 C1601.13542969 2154.16039063 1601.13414063 2152.97703125 1601.1328125 2151.7578125 C1601.13112061 2150.13576904 1601.13112061 2150.13576904 1601.12939453 2148.48095703 C1601.2805046 2146.05739864 1601.2805046 2146.05739864 1600 2145 C1597.86646826 2144.89996711 1595.72962458 2144.86918952 1593.59375 2144.8671875 C1591.64275391 2144.86525391 1591.64275391 2144.86525391 1589.65234375 2144.86328125 C1588.97155762 2144.86537598 1588.29077148 2144.8674707 1587.58935547 2144.86962891 C1585.50871485 2144.8749776 1583.42829011 2144.8696832 1581.34765625 2144.86328125 C1580.04699219 2144.86457031 1578.74632812 2144.86585938 1577.40625 2144.8671875 C1576.20291016 2144.86831543 1574.99957031 2144.86944336 1573.75976562 2144.87060547 C1571.09015518 2144.68544023 1571.09015518 2144.68544023 1570 2146 C1569.89338973 2147.40530868 1569.85381672 2148.81579809 1569.84228516 2150.22509766 C1569.82689194 2151.57252548 1569.82689194 2151.57252548 1569.81118774 2152.94717407 C1569.80388641 2153.92624725 1569.79658508 2154.90532043 1569.7890625 2155.9140625 C1569.7609782 2157.97526814 1569.73231364 2160.03646595 1569.703125 2162.09765625 C1569.66195726 2165.35627901 1569.62508313 2168.61475789 1569.59863281 2171.87353516 C1569.57092751 2175.0123553 1569.52503603 2178.15050337 1569.4765625 2181.2890625 C1569.47330963 2182.2559903 1569.47005676 2183.22291809 1569.46670532 2184.21914673 C1569.36431328 2189.88805569 1568.76961712 2194.00973606 1566 2199 C1560.40881363 2203.03085529 1555.17387874 2202.35930703 1548.6875 2201.625 C1544.97309411 2199.37908016 1544.72187284 2197.26220221 1543.59824562 2193.18498802 C1542.37503074 2186.67273854 1542.5935627 2180.06290397 1542.62768555 2173.4621582 C1542.62525372 2171.80703503 1542.62153061 2170.15191334 1542.61662292 2168.49679565 C1542.60726606 2164.02797264 1542.61659415 2159.55937063 1542.62995505 2155.09056497 C1542.64132061 2150.40267698 1542.63715825 2145.71479906 1542.63520813 2141.02690125 C1542.63432703 2133.15974339 1542.64536925 2125.292672 1542.66381836 2117.42553711 C1542.68500523 2108.33910861 1542.68849005 2099.2528065 1542.6822564 2090.16635829 C1542.67655678 2081.40872682 1542.68221405 2072.65113971 1542.69342995 2063.89351463 C1542.69806574 2060.17319096 1542.69895423 2056.45289451 1542.6968441 2052.73256874 C1542.69495679 2048.35188132 1542.70309914 2043.9713221 1542.7189045 2039.59066391 C1542.72313655 2037.98588148 1542.72400517 2036.38108601 1542.72121429 2034.77630043 C1542.71797612 2032.58085556 1542.7271148 2030.38578982 1542.73930359 2028.19038391 C1542.74135646 2026.96356053 1542.74340933 2025.73673716 1542.74552441 2024.47273731 C1543.10834713 2019.52142545 1543.76531737 2015.37993941 1547.125 2011.625 C1551.89906296 2008.92661659 1555.98776228 2008.54439901 1561.3125 2009.75 C1564.9094256 2011.42298865 1566.40225974 2012.70061524 1568.05819702 2016.30033875 C1569.00294596 2019.00844454 1569.27272217 2021.02998773 1569.31884766 2023.88208008 C1569.33871735 2024.82267776 1569.35858704 2025.76327545 1569.37905884 2026.7323761 C1569.39061005 2027.7346373 1569.40216125 2028.7368985 1569.4140625 2029.76953125 C1569.43342865 2030.80567062 1569.4527948 2031.84181 1569.4727478 2032.90934753 C1569.53240357 2036.21031529 1569.57887331 2039.51131819 1569.625 2042.8125 C1569.66319263 2045.05405145 1569.70224511 2047.29558842 1569.7421875 2049.53710938 C1569.83970789 2055.02466317 1569.9193887 2060.51206759 1570 2066 C1580.23 2066 1590.46 2066 1601 2066 C1601.061875 2061.6275 1601.12375 2057.255 1601.1875 2052.75 C1601.21481201 2051.39745117 1601.24212402 2050.04490234 1601.27026367 2048.65136719 C1601.35835086 2035.63719595 1599.16278298 2023.88676319 1590.18359375 2014 C1571.31566435 1996.3136985 1540.84587096 1996.79363597 1522.125 2014.25 Z M1697 2016 C1688.95227971 2025.91525347 1688.51140827 2037.26127502 1688.60888672 2049.47607422 C1688.62492303 2051.86354118 1688.60899807 2054.24930415 1688.58984375 2056.63671875 C1688.55892087 2079.75412072 1696.58779836 2091.67268039 1712.50802612 2107.64602661 C1713.5572425 2108.69438647 1714.60730616 2109.74189902 1715.65820312 2110.78857422 C1717.26551177 2112.39045943 1718.86732084 2113.99770791 1720.46875 2115.60546875 C1721.5048874 2116.64094624 1722.54133448 2117.67611397 1723.578125 2118.7109375 C1724.50012695 2119.63181152 1725.42212891 2120.55268555 1726.37207031 2121.50146484 C1728.81712479 2123.82612924 1731.36513424 2125.89800931 1734 2128 C1735.6953125 2130.2265625 1735.6953125 2130.2265625 1737.125 2132.625 C1737.60195312 2133.40101563 1738.07890625 2134.17703125 1738.5703125 2134.9765625 C1742.23596531 2142.7285168 1743.45523738 2150.0556975 1743.3984375 2158.57421875 C1743.40130768 2159.54228958 1743.40417786 2160.51036041 1743.40713501 2161.50776672 C1743.40916159 2163.53716625 1743.40373107 2165.56658595 1743.39111328 2167.59594727 C1743.37498665 2170.69006075 1743.39103736 2173.78287864 1743.41015625 2176.87695312 C1743.4081746 2178.85937786 1743.40433253 2180.84180179 1743.3984375 2182.82421875 C1743.40754654 2184.19944954 1743.40754654 2184.19944954 1743.4168396 2185.60246277 C1743.35633686 2191.15676282 1742.63257093 2195.08009335 1740 2200 C1737.08333672 2202.48456501 1733.71614812 2202.35869129 1729.96484375 2202.25390625 C1727.04372208 2201.87642532 1725.25685476 2200.85858628 1723 2199 C1721.11878441 2195.95854813 1720.73962348 2193.61233982 1720.69702148 2190.0637207 C1720.68037949 2189.08623367 1720.66373749 2188.10874664 1720.64659119 2187.10163879 C1720.63817703 2186.0536058 1720.62976288 2185.00557281 1720.62109375 2183.92578125 C1720.60409927 2182.84620651 1720.5871048 2181.76663177 1720.56959534 2180.65434265 C1720.51646573 2177.2071211 1720.47615404 2173.75991192 1720.4375 2170.3125 C1720.39362994 2166.85443668 1720.3470029 2163.39646854 1720.29469299 2159.93852234 C1720.26263459 2157.78626136 1720.23577658 2155.6339158 1720.21446228 2153.48152161 C1720.20097244 2152.51349106 1720.1874826 2151.54546051 1720.17358398 2150.5480957 C1720.16407211 2149.6919014 1720.15456024 2148.83570709 1720.14476013 2147.9535675 C1720.21344348 2145.99580355 1720.21344348 2145.99580355 1719 2145 C1716.86646826 2144.89996711 1714.72962458 2144.86918952 1712.59375 2144.8671875 C1710.64275391 2144.86525391 1710.64275391 2144.86525391 1708.65234375 2144.86328125 C1707.97155762 2144.86537598 1707.29077148 2144.8674707 1706.58935547 2144.86962891 C1704.50871485 2144.8749776 1702.42829011 2144.8696832 1700.34765625 2144.86328125 C1699.04699219 2144.86457031 1697.74632812 2144.86585938 1696.40625 2144.8671875 C1695.20291016 2144.86831543 1693.99957031 2144.86944336 1692.75976562 2144.87060547 C1690.09015518 2144.68544023 1690.09015518 2144.68544023 1689 2146 C1688.73050719 2150.21561101 1688.72844882 2154.43768933 1688.70483398 2158.66088867 C1688.69343583 2160.07570493 1688.67318255 2161.4904825 1688.64331055 2162.9050293 C1688.38296899 2175.23416549 1689.73288836 2186.2478596 1698.02734375 2195.96875 C1707.42702495 2205.64762965 1718.15846821 2209.83003034 1731.5625 2210.25 C1743.63444821 2210.10040956 1754.10981662 2207.11382469 1763.21875 2199.03125 C1776.37567464 2185.48158134 1775.40637449 2168.08724146 1775.21484375 2150.45703125 C1774.9001954 2134.80083272 1772.2205403 2121.50756427 1760.64125061 2110.22866821 C1759.83280197 2109.46484833 1759.02435333 2108.70102844 1758.19140625 2107.9140625 C1756.45761917 2106.22402309 1754.72389722 2104.53391686 1752.99023438 2102.84375 C1750.27799196 2100.2308167 1747.56070249 2097.62327875 1744.84057617 2095.01855469 C1742.19457216 2092.47589709 1739.56765737 2089.91459435 1736.94140625 2087.3515625 C1736.13498184 2086.59179108 1735.32855743 2085.83201965 1734.49769592 2085.04922485 C1727.66710016 2078.3669256 1721.4904775 2069.66128625 1720.85955811 2059.80628967 C1720.8527301 2059.01306808 1720.8459021 2058.2198465 1720.83886719 2057.40258789 C1720.82925964 2056.49807388 1720.8196521 2055.59355988 1720.80975342 2054.66163635 C1720.80550354 2053.69177292 1720.80125366 2052.72190948 1720.796875 2051.72265625 C1720.79117493 2050.71915634 1720.78547485 2049.71565643 1720.77960205 2048.68174744 C1720.77016435 2046.56103568 1720.76362296 2044.44030933 1720.75976562 2042.31958008 C1720.75004656 2039.07802811 1720.71900578 2035.83710673 1720.6875 2032.59570312 C1720.6809709 2030.53385793 1720.67572006 2028.4720082 1720.671875 2026.41015625 C1720.6595282 2025.44231705 1720.6471814 2024.47447784 1720.63446045 2023.47731018 C1720.65080279 2018.53465671 1720.67302938 2014.96140206 1724 2011 C1728.19362191 2008.92757057 1732.37137088 2008.92017408 1736.9375 2009.5 C1740 2011 1740 2011 1741.16552734 2013.38720703 C1742.31766105 2018.37529203 1742.35740818 2023.19972323 1742.4140625 2028.3046875 C1742.43342865 2029.38380402 1742.4527948 2030.46292053 1742.4727478 2031.57473755 C1742.53233942 2035.00807895 1742.57884761 2038.44145424 1742.625 2041.875 C1742.66319853 2044.20834764 1742.70225135 2046.54168146 1742.7421875 2048.875 C1742.83962579 2054.58325984 1742.91935778 2060.29137945 1743 2066 C1753.23 2066 1763.46 2066 1774 2066 C1774.061875 2061.276875 1774.12375 2056.55375 1774.1875 2051.6875 C1774.21481201 2050.22143311 1774.24212402 2048.75536621 1774.27026367 2047.24487305 C1774.35210795 2034.23867379 1772.19470637 2022.77564539 1763.11328125 2012.9609375 C1754.31859376 2004.84010622 1743.28947175 2001.00603648 1731.3125 2000.6875 C1717.48218432 2001.26796945 1706.47114489 2005.8378997 1697 2016 Z M1411 2017 C1403.37303479 2026.48113971 1402.5553736 2037.14569891 1402.61181641 2048.91992188 C1402.60774253 2050.29432083 1402.60239611 2051.6687165 1402.59588623 2053.04310608 C1402.58230359 2056.74769562 1402.58747344 2060.45203225 1402.59702349 2064.15662575 C1402.60466739 2068.05034648 1402.59756143 2071.94404688 1402.59286499 2075.83776855 C1402.58742112 2082.37414399 1402.59456295 2088.91041743 1402.60888672 2095.44677734 C1402.62521063 2102.98245211 1402.61992115 2110.51788328 1402.6034075 2118.05355215 C1402.58975346 2124.54644641 1402.58789205 2131.03926773 1402.59572351 2137.53217173 C1402.60037857 2141.40006402 1402.60108504 2145.26784216 1402.59111404 2149.13572693 C1402.58238931 2152.77368396 1402.58856558 2156.41132973 1402.60579681 2160.04925346 C1402.61159617 2162.00577757 1402.60279335 2163.96232828 1402.59341431 2165.9188385 C1402.68217626 2178.35982965 1405.37727917 2188.09520032 1414.109375 2197.19921875 C1424.48770675 2206.87969716 1436.58069437 2210.66269428 1450.76171875 2210.2890625 C1464.46401758 2209.06593812 1474.63513621 2204.00693639 1484 2194 C1491.47592837 2184.04747808 1492.31694879 2174.73944138 1492.20581055 2162.6340332 C1492.18732773 2160.54300996 1492.18530284 2158.45242528 1492.18554688 2156.36132812 C1492.75765818 2150.29488894 1492.75765818 2150.29488894 1491 2145 C1488.78144736 2144.91216458 1486.56011504 2144.89305391 1484.33984375 2144.90234375 C1483.67537735 2144.9037587 1483.01091095 2144.90517365 1482.3263092 2144.90663147 C1480.19666101 2144.91224482 1478.06711661 2144.92479946 1475.9375 2144.9375 C1474.49674631 2144.94251329 1473.05599097 2144.94707649 1471.61523438 2144.95117188 C1468.07678898 2144.96221855 1464.53840461 2144.97949208 1461 2145 C1460.99635437 2145.60055206 1460.99270874 2146.20110413 1460.98895264 2146.81985474 C1460.94707548 2153.08211682 1460.87769322 2159.34364956 1460.79248047 2165.60546875 C1460.76429071 2167.94100645 1460.7430663 2170.2766392 1460.72900391 2172.61230469 C1460.70754754 2175.97380159 1460.66088094 2179.33415807 1460.609375 2182.6953125 C1460.60753204 2184.25658371 1460.60753204 2184.25658371 1460.60565186 2185.84939575 C1460.48469653 2191.86423585 1459.99707698 2195.40835546 1456 2200 C1452.98861892 2202.36608514 1449.7983003 2202.36235625 1446.02734375 2202.25 C1441.83727832 2201.733306 1438.94997564 2200.21334099 1436.35905457 2196.90412903 C1434.60468415 2193.15525965 1434.56004114 2189.7783288 1434.56762695 2185.72143555 C1434.5574353 2184.90140549 1434.54724365 2184.08137543 1434.53674316 2183.23649597 C1434.50664255 2180.53650046 1434.49735177 2177.83685992 1434.48828125 2175.13671875 C1434.47143238 2173.2605522 1434.45328186 2171.38439693 1434.43388367 2169.508255 C1434.38640014 2164.57802859 1434.35658009 2159.6478479 1434.33044434 2154.71746826 C1434.29538574 2148.79769237 1434.23837763 2142.87809204 1434.18505096 2136.95845795 C1434.10655635 2127.97232756 1434.05593612 2118.98642668 1434 2110 C1462.71 2109.505 1462.71 2109.505 1492 2109 C1492.11655598 2096.14065964 1492.11655598 2096.14065964 1492.1953125 2083.28125 C1492.21912218 2078.02782812 1492.24713178 2072.77468801 1492.30175781 2067.52148438 C1492.34557192 2063.28095688 1492.36921121 2059.040732 1492.37950897 2054.79999542 C1492.38683713 2053.19103489 1492.40114529 2051.58208884 1492.42292023 2049.97325897 C1492.61167668 2035.43425378 1490.50254021 2023.93233895 1480.22265625 2013.1328125 C1470.98536695 2004.32999693 1459.92334478 2001.63738177 1447.5 2000.75 C1432.97384396 2001.78758257 1421.07033105 2006.08185874 1411 2017 Z M2037 2017 C2029.37303479 2026.48113971 2028.5553736 2037.14569891 2028.61181641 2048.91992188 C2028.60774253 2050.29432083 2028.60239611 2051.6687165 2028.59588623 2053.04310608 C2028.58230359 2056.74769562 2028.58747344 2060.45203225 2028.59702349 2064.15662575 C2028.60466739 2068.05034648 2028.59756143 2071.94404688 2028.59286499 2075.83776855 C2028.58742112 2082.37414399 2028.59456295 2088.91041743 2028.60888672 2095.44677734 C2028.62521063 2102.98245211 2028.61992115 2110.51788328 2028.6034075 2118.05355215 C2028.58975346 2124.54644641 2028.58789205 2131.03926773 2028.59572351 2137.53217173 C2028.60037857 2141.40006402 2028.60108504 2145.26784216 2028.59111404 2149.13572693 C2028.58238931 2152.77368396 2028.58856558 2156.41132973 2028.60579681 2160.04925346 C2028.61159617 2162.00577757 2028.60279335 2163.96232828 2028.59341431 2165.9188385 C2028.68217626 2178.35982965 2031.37727917 2188.09520032 2040.109375 2197.19921875 C2050.79176729 2207.16331225 2063.06626635 2210.65323253 2077.61328125 2210.28515625 C2089.75085587 2209.26319207 2100.57134391 2204.4776732 2108.953125 2195.60546875 C2115.37625849 2187.42945723 2118.12335044 2179.25476023 2118.1328125 2168.984375 C2118.13424759 2167.9997226 2118.13424759 2167.9997226 2118.13571167 2166.99517822 C2118.1363888 2165.61690169 2118.13456723 2164.23862188 2118.13037109 2162.86035156 C2118.12498159 2160.74276687 2118.13034936 2158.62539096 2118.13671875 2156.5078125 C2118.13605856 2155.1666662 2118.13477862 2153.82552002 2118.1328125 2152.484375 C2118.13112061 2150.65471191 2118.13112061 2150.65471191 2118.12939453 2148.78808594 C2118.31800561 2146.09348391 2118.31800561 2146.09348391 2117 2145 C2114.86646826 2144.89996711 2112.72962458 2144.86918952 2110.59375 2144.8671875 C2108.64275391 2144.86525391 2108.64275391 2144.86525391 2106.65234375 2144.86328125 C2105.97155762 2144.86537598 2105.29077148 2144.8674707 2104.58935547 2144.86962891 C2102.50871485 2144.8749776 2100.42829011 2144.8696832 2098.34765625 2144.86328125 C2097.04699219 2144.86457031 2095.74632813 2144.86585938 2094.40625 2144.8671875 C2093.20291016 2144.86831543 2091.99957031 2144.86944336 2090.75976562 2144.87060547 C2088.09015518 2144.68544023 2088.09015518 2144.68544023 2087 2146 C2086.89838286 2147.47210816 2086.86432237 2148.94896222 2086.8581543 2150.42456055 C2086.85111984 2151.36611496 2086.84408539 2152.30766937 2086.83683777 2153.27775574 C2086.83267349 2154.30371353 2086.82850922 2155.32967133 2086.82421875 2156.38671875 C2086.80101259 2158.54362947 2086.77689494 2160.70053053 2086.75195312 2162.85742188 C2086.71687471 2166.2698402 2086.68752205 2169.681906 2086.67407227 2173.09448242 C2086.65857645 2176.37983395 2086.61834352 2179.66414316 2086.57421875 2182.94921875 C2086.57612717 2183.96505539 2086.57803558 2184.98089203 2086.58000183 2186.0275116 C2086.47727774 2191.99074715 2085.94675039 2195.44076674 2082 2200 C2078.98861892 2202.36608514 2075.7983003 2202.36235625 2072.02734375 2202.25 C2067.74242232 2201.72160892 2064.91454314 2200.10375896 2062.1875 2196.8125 C2059.77895014 2191.1080398 2059.87539098 2184.77725739 2059.89079285 2178.66244507 C2059.89140314 2177.62336154 2059.89140314 2177.62336154 2059.89202577 2176.56328642 C2059.89470039 2174.26659877 2059.90469174 2171.97000591 2059.91479492 2169.67333984 C2059.91839496 2168.01689227 2059.92159895 2166.3604438 2059.92443848 2164.70399475 C2059.93377262 2160.22277553 2059.95009724 2155.74161031 2059.96880889 2151.26042128 C2059.98047723 2148.45890126 2059.9911347 2145.65737897 2060.00155067 2142.85585403 C2060.03474062 2134.08434006 2060.07275128 2125.312864 2060.11691588 2116.54139841 C2060.16771103 2106.42566348 2060.20191501 2096.31004783 2060.22209662 2086.1942066 C2060.23877391 2078.36463212 2060.27064109 2070.53520981 2060.31394273 2062.70573771 C2060.3394226 2058.03310944 2060.35837187 2053.36067064 2060.36131859 2048.68796921 C2060.36447106 2044.29647796 2060.38645691 2039.90548049 2060.42287445 2035.51414299 C2060.43298231 2033.90412778 2060.43632114 2032.29405349 2060.43234444 2030.68401146 C2060.42795066 2028.48330383 2060.44810093 2026.28411374 2060.47428894 2024.08358765 C2060.47927493 2022.85324484 2060.48426092 2021.62290203 2060.489398 2020.35527611 C2061.10249185 2016.32650391 2062.45804424 2014.15152616 2065 2011 C2069.80312219 2008.43088813 2074.83838224 2008.49809281 2080 2010 C2082.70552388 2012.19823815 2084.44778333 2013.89556667 2086 2017 C2086.11840113 2018.57206643 2086.17703033 2020.14883269 2086.20532227 2021.72509766 C2086.2352401 2023.19639633 2086.2352401 2023.19639633 2086.26576233 2024.69741821 C2086.28247482 2025.75891083 2086.29918732 2026.82040344 2086.31640625 2027.9140625 C2086.33718735 2028.99883881 2086.35796844 2030.08361511 2086.37937927 2031.20126343 C2086.44490634 2034.67577621 2086.50377447 2038.15036624 2086.5625 2041.625 C2086.60568221 2043.97657058 2086.6492964 2046.32813326 2086.69335938 2048.6796875 C2086.801406 2054.45304689 2086.90045625 2060.22646261 2087 2066 C2097.23 2066 2107.46 2066 2118 2066 C2118.0928125 2058.636875 2118.0928125 2058.636875 2118.1875 2051.125 C2118.21481201 2049.59762207 2118.24212402 2048.07024414 2118.27026367 2046.49658203 C2118.34961054 2033.43079698 2116.04396045 2023.60692805 2106.99609375 2013.8359375 C2097.3857782 2004.65542139 2086.49632562 2001.67830897 2073.5 2000.75 C2058.97384396 2001.78758257 2047.07033105 2006.08185874 2037 2017 Z M984 2008 C984 2006.35 984 2004.7 984 2003 C970.8 2003 957.6 2003 944 2003 C944 2005.31 944 2007.62 944 2010 C946.97 2010.33 949.94 2010.66 953 2011 C953.33 2073.7 953.66 2136.4 954 2201 C950.7 2201 947.4 2201 944 2201 C944 2203.31 944 2205.62 944 2208 C960.5 2208 977 2208 994 2208 C994 2205.69 994 2203.38 994 2201 C990.7 2201 987.4 2201 984 2201 C983.9904496 2176.96524009 984.01500541 2152.9307251 984.0802784 2128.89604664 C984.10978805 2117.73655618 984.12809357 2106.57725643 984.12011719 2095.41772461 C984.11319411 2085.69220691 984.12719691 2075.96698427 984.16643608 2066.24153918 C984.18648388 2061.09084553 984.19597924 2055.94061542 984.18042374 2050.78989601 C984.16611581 2045.94286548 984.17976363 2041.09672162 984.21495247 2036.24980545 C984.22292803 2034.47004592 984.22064683 2032.69020664 984.20739174 2030.91047859 C984.19082469 2028.48079353 984.21105652 2026.05408796 984.24050903 2023.62458801 C984.22692293 2022.91932679 984.21333683 2022.21406556 984.19933903 2021.48743278 C984.26457962 2018.7205352 984.49004224 2016.60313136 986.31037688 2014.45020616 C990.66997838 2010.71788295 993.39093285 2009.82193438 999 2010 C1002.26120968 2012.49794784 1003.70143247 2014.10429741 1005 2018 C1005.11448477 2019.57961159 1005.17622932 2021.16333852 1005.20532227 2022.74682617 C1005.2352401 2024.18798042 1005.2352401 2024.18798042 1005.26576233 2025.6582489 C1005.28247482 2026.69270645 1005.29918732 2027.727164 1005.31640625 2028.79296875 C1005.33718735 2029.85413406 1005.35796844 2030.91529938 1005.37937927 2032.00862122 C1005.44481238 2035.40151437 1005.50373093 2038.7944855 1005.5625 2042.1875 C1005.60569114 2044.48633622 1005.64930562 2046.78516453 1005.69335938 2049.08398438 C1005.8004874 2054.7225736 1005.90226551 2060.36124056 1006 2066 C1010.25414623 2066.02465622 1014.50825498 2066.04283899 1018.76245117 2066.05493164 C1020.21070073 2066.05997101 1021.65894517 2066.06680253 1023.10717773 2066.07543945 C1025.18474588 2066.08752247 1027.26224697 2066.09323211 1029.33984375 2066.09765625 C1030.59144287 2066.10289307 1031.84304199 2066.10812988 1033.13256836 2066.11352539 C1035.89732294 2066.32887035 1035.89732294 2066.32887035 1037 2065 C1037.24630117 2060.53560468 1037.22869895 2056.06493897 1037.24023438 2051.59448242 C1037.2497684 2049.36661906 1037.28068723 2047.13974889 1037.3125 2044.91210938 C1037.40850412 2032.05375347 1036.9201885 2018.33704053 1027.58984375 2008.515625 C1015.3997209 1997.46324695 996.99076256 1999.4379065 984 2008 Z M1267 2003 C1267 2005.31 1267 2007.62 1267 2010 C1270.3 2010 1273.6 2010 1277 2010 C1277 2073.03 1277 2136.06 1277 2201 C1273.7 2201 1270.4 2201 1267 2201 C1267 2203.31 1267 2205.62 1267 2208 C1283.83 2208 1300.66 2208 1318 2208 C1318 2206.02 1318 2204.04 1318 2202 C1317.67 2201.67 1317.34 2201.34 1317 2201 C1314.03 2201 1311.06 2201 1308 2201 C1308 2135.66 1308 2070.32 1308 2003 C1294.47 2003 1280.94 2003 1267 2003 Z M1951 2008 C1951 2006.35 1951 2004.7 1951 2003 C1937.47 2003 1923.94 2003 1910 2003 C1910 2005.31 1910 2007.62 1910 2010 C1913.3 2010 1916.6 2010 1920 2010 C1920 2073.03 1920 2136.06 1920 2201 C1917.03 2201 1914.06 2201 1911 2201 C1910.67 2201.33 1910.34 2201.66 1910 2202 C1910 2203.98 1910 2205.96 1910 2208 C1926.83 2208 1943.66 2208 1961 2208 C1961 2205.69 1961 2203.38 1961 2201 C1957.7 2201 1954.4 2201 1951 2201 C1950.99045207 2176.8175862 1951.01498753 2152.63541585 1951.0802784 2128.45308304 C1951.10979539 2117.22518293 1951.12809097 2105.99747248 1951.12011719 2094.76953125 C1951.11319683 2084.98506017 1951.12718049 2075.20088249 1951.16643608 2065.41648364 C1951.18649411 2060.23396461 1951.1959688 2055.05190658 1951.18042374 2049.86936188 C1951.16612884 2044.9936089 1951.17973424 2040.11873829 1951.21495247 2035.24309921 C1951.22293608 2033.45163167 1951.22063319 2031.66008493 1951.20739174 2029.86864853 C1951.19085687 2027.42547755 1951.21101838 2024.98528272 1951.24050903 2022.54229736 C1951.22692293 2021.83023235 1951.21333683 2021.11816733 1951.19933903 2020.38452458 C1951.24609566 2018.39702225 1951.24609566 2018.39702225 1952 2015 C1957.45074877 2010.4840223 1961.99596005 2009.38561053 1969 2010 C1972.24676416 2011.87590818 1973.66155754 2013.19653315 1975.11931419 2016.65726662 C1976.11721611 2020.44490579 1976.2890009 2023.97333541 1976.2784729 2027.85873413 C1976.2842653 2028.63156852 1976.2900577 2029.40440292 1976.29602563 2030.20065653 C1976.31297782 2032.78013541 1976.31589799 2035.35943484 1976.31884766 2037.93896484 C1976.32814913 2039.79204749 1976.33831813 2041.64512595 1976.34928894 2043.49819946 C1976.3765782 2048.52246845 1976.39173521 2053.54670941 1976.40471697 2058.571033 C1976.42035216 2063.82413158 1976.44714116 2069.07717298 1976.4727478 2074.33023071 C1976.51952867 2084.274813 1976.55627616 2094.21940605 1976.58942068 2104.16404212 C1976.62764692 2115.48685488 1976.67705579 2126.80961019 1976.72740483 2138.13237453 C1976.83071443 2161.42154588 1976.91850184 2184.7107414 1977 2208 C1990.2 2208 2003.4 2208 2017 2208 C2017 2205.69 2017 2203.38 2017 2201 C2013.7 2201 2010.4 2201 2007 2201 C2007.00553076 2199.68058143 2007.00553076 2199.68058143 2007.01117325 2198.33450794 C2007.09966805 2176.89116327 2007.16577945 2155.44785026 2007.20724869 2134.00436115 C2007.22783804 2123.63426958 2007.25588906 2113.26430022 2007.30175781 2102.89428711 C2007.34173687 2093.85147443 2007.36745915 2084.80875029 2007.37635398 2075.76585168 C2007.38155003 2070.98158468 2007.39368644 2066.19757091 2007.42292023 2061.41338539 C2007.45026457 2056.90144671 2007.45840695 2052.38986326 2007.45243073 2047.87784958 C2007.45352252 2046.23041917 2007.46136241 2044.58297568 2007.4768219 2042.93561745 C2007.57931229 2031.44112655 2007.15543471 2019.85983818 1999.75 2010.4375 C1992.62951234 2003.25654111 1983.92586204 2001.4778921 1974.125 2000.6875 C1965.80842386 2000.94053984 1957.90873073 2003.44651838 1951 2008 Z M2136 2161 C2136 2176.51 2136 2192.02 2136 2208 C2145.9 2208 2155.8 2208 2166 2208 C2166 2192.49 2166 2176.98 2166 2161 C2156.1 2161 2146.2 2161 2136 2161 Z " fill="#000000" transform="translate(0,0)"/>
<path d="M0 0 C2.83921735 2.83921735 2.58470709 5.82674457 2.8964386 9.65419006 C2.96905879 10.45743924 3.04167898 11.26068841 3.11649978 12.08827847 C3.36014594 14.80824274 3.59074694 17.52916068 3.8215332 20.25024414 C3.99430247 22.20928795 4.16786611 24.16826183 4.34216022 26.12717056 C4.82081234 31.53311733 5.28809806 36.9399969 5.75361872 42.3470881 C6.25699207 48.17094441 6.77076821 53.99388369 7.28329468 59.81694031 C8.28708152 71.24019167 9.28125422 82.66426074 10.27236629 94.08861798 C11.07903871 103.38358269 11.88972657 112.67818993 12.70352173 121.97253418 C12.76132056 122.63268356 12.8191194 123.29283295 12.87866972 123.97298686 C13.17226363 127.32607443 13.46591936 130.67915658 13.75959694 134.03223681 C15.84220497 157.81203007 17.91620211 181.59256739 19.98535156 205.37353516 C21.99019682 228.41530771 23.99954874 251.45668049 26.01464844 274.49755859 C26.10753019 275.55960372 26.10753019 275.55960372 26.20228834 276.6431043 C26.76250427 283.04879609 27.32275665 289.45448469 27.88304049 295.86017054 C30.03808062 320.4991974 32.18986936 345.13850847 34.34075499 369.77789831 C34.5721755 372.42891213 34.80360844 375.07992487 35.03505373 377.73093653 C36.47258924 394.1969447 37.9084783 410.66309492 39.34151077 427.12949562 C39.74000594 431.70796518 40.13908899 436.28638285 40.53873825 440.86475182 C41.00131197 446.16430829 41.46259925 451.46397524 41.92292917 456.76372707 C42.08799962 458.6618684 42.25348968 460.55997331 42.41948855 462.45803368 C43.71697018 477.2988412 44.85730476 492.14496183 46 507 C14.65 507 -16.7 507 -49 507 C-45.50214231 470.47673162 -45.50214231 470.47673162 -44.12304688 456.09667969 C-44.03775758 455.20734977 -43.95246828 454.31801986 -43.86459446 453.40174055 C-43.22236167 446.70531437 -42.57997503 440.00890295 -41.9375 433.3125 C-41.84576759 432.35637754 -41.75403519 431.40025509 -41.65952301 430.41515923 C-32.3930865 333.83582692 -23.01508047 237.26735572 -13.63197517 140.69930077 C-9.07510543 93.8007793 -4.53418279 46.90071985 0 0 Z " fill="#000000" transform="translate(1484,906)"/>
<path d="M0 0 C0.66 0.33 1.32 0.66 2 1 C2.4335041 3.22745705 2.4335041 3.22745705 2.69607544 6.23623657 C2.79979462 7.37182007 2.90351379 8.50740356 3.01037598 9.67739868 C3.16790344 11.56306046 3.16790344 11.56306046 3.32861328 13.48681641 C3.44632716 14.81556239 3.56486672 16.14423545 3.68417358 17.47283936 C4.00673188 21.09225152 4.31743344 24.71259587 4.62593699 28.33322954 C4.95050234 32.12085833 5.28529853 35.90758286 5.61886597 39.69442749 C6.17819428 46.06120771 6.73039351 52.42857367 7.27783203 58.79638672 C7.97955992 66.95848378 8.69280202 75.11953071 9.40980721 83.28029823 C10.02661145 90.30156377 10.63817228 97.3232846 11.24885702 104.34508467 C11.44500549 106.59803614 11.6418494 108.85092608 11.83877945 111.10380936 C12.14878801 114.65426494 12.45551885 118.20498982 12.75976944 121.7559433 C12.92476704 123.67394293 13.09267485 125.59169151 13.26068115 127.50942993 C13.40780045 129.23818359 13.40780045 129.23818359 13.55789185 131.00186157 C13.64378633 131.99702097 13.72968082 132.99218037 13.81817818 134.01749611 C14.02068969 137.3393822 14 140.6719468 14 144 C5.09 144 -3.82 144 -13 144 C-13 132.75 -13 132.75 -12.50646973 127.71029663 C-12.39708572 126.56905334 -12.28770172 125.42781006 -12.17500305 124.25198364 C-11.99266365 122.42641434 -11.99266365 122.42641434 -11.80664062 120.56396484 C-11.67984421 119.25552612 -11.55304779 117.9470874 -11.42240906 116.59899902 C-11.07754737 113.04142307 -10.72679771 109.48445033 -10.3749218 105.92756224 C-10.00709666 102.19900503 -9.64478113 98.46991243 -9.28186035 94.74087524 C-8.59511089 87.69304911 -7.90346653 80.64571247 -7.21002626 73.59854186 C-6.42024445 65.56981511 -5.63597579 57.54055278 -4.85215092 49.51124263 C-3.24086538 33.00689495 -1.62271897 16.50322754 0 0 Z " fill="#000000" transform="translate(875,1970)"/>
<path d="M0 0 C3.55151047 2.19135752 5.55234327 4.10920733 7 8 C7.18077635 10.78704334 7.25271503 13.47134823 7.22705078 16.25683594 C7.22734283 17.08647354 7.22763489 17.91611115 7.22793579 18.77088928 C7.2265442 21.50882482 7.21099104 24.24648709 7.1953125 26.984375 C7.19158176 28.88437756 7.18873508 30.78438204 7.18673706 32.68438721 C7.17910539 37.68212202 7.15946085 42.67974036 7.1373291 47.6774292 C7.11686067 52.77842636 7.10773321 57.87944235 7.09765625 62.98046875 C7.07621455 72.98703854 7.04103616 82.99349136 7 93 C-1.91 93 -10.82 93 -20 93 C-20.09041927 82.02101402 -20.16378424 71.0422759 -20.20724869 60.06300163 C-20.22811092 54.96471177 -20.25640383 49.86669017 -20.30175781 44.76855469 C-20.34526396 39.84725437 -20.36914737 34.92621185 -20.37950897 30.00473404 C-20.38689176 28.12845934 -20.40130873 26.25219854 -20.42292023 24.37603378 C-20.45201777 21.74500951 -20.45595338 19.11504637 -20.45410156 16.48388672 C-20.46848267 15.7106456 -20.48286377 14.93740448 -20.49768066 14.14073181 C-20.458157 8.9406554 -19.33167344 5.97628532 -16 2 C-10.60810832 -1.27742435 -5.97445858 -1.6589491 0 0 Z " fill="#000000" transform="translate(1454,2009)"/>
</svg>
